<svg width="1280" height="720" xmlns="http://www.w3.org/2000/svg" xmlns:xlink="http://www.w3.org/1999/xlink" overflow="hidden"><g><rect x="0" y="0" width="1280" height="720" fill="#FFFFFF"/><rect x="41" y="151" width="173" height="52" stroke="#000000" stroke-width="8" stroke-miterlimit="8" fill="#FFFFFF"/><text font-family="Yu Gothic,Yu Gothic_MSFontService,sans-serif" font-weight="700" font-size="24" transform="translate(71.1258 185)">2D LiDAR</text><rect x="344" y="570" width="251" height="51" stroke="#000000" stroke-width="8" stroke-miterlimit="8" fill="#FFFFFF"/><text font-family="Yu Gothic,Yu Gothic_MSFontService,sans-serif" font-weight="700" font-size="24" transform="translate(359.069 603)">waypoint_maneger</text><rect x="9" y="313" width="173" height="52" stroke="#000000" stroke-width="8" stroke-miterlimit="8" fill="#FFFFFF"/><text font-family="Yu Gothic,Yu Gothic_MSFontService,sans-serif" font-weight="700" font-size="24" transform="translate(58.0945 347)">yolov5</text><rect x="383" y="313" width="173" height="52" stroke="#000000" stroke-width="8" stroke-miterlimit="8" fill="#FFFFFF"/><text font-family="Yu Gothic,Yu Gothic_MSFontService,sans-serif" font-weight="700" font-size="24" transform="translate(403.485 347)">box_chaser</text><rect x="725" y="313" width="173" height="52" stroke="#000000" stroke-width="8" stroke-miterlimit="8" fill="#FFFFFF"/><text font-family="Yu Gothic,Yu Gothic_MSFontService,sans-serif" font-weight="700" font-size="24" transform="translate(751.678 347)">twist_mux</text><rect x="1037" y="313" width="174" height="52" stroke="#000000" stroke-width="8" stroke-miterlimit="8" fill="#FFFFFF"/><text font-family="Yu Gothic,Yu Gothic_MSFontService,sans-serif" font-weight="700" font-size="24" transform="translate(1089.32 347)">motor</text><rect x="725" y="570" width="173" height="51" stroke="#000000" stroke-width="8" stroke-miterlimit="8" fill="#FFFFFF"/><text font-family="Yu Gothic,Yu Gothic_MSFontService,sans-serif" font-weight="700" font-size="24" transform="translate(746.095 603)">move_base</text><path d="M182 336 367.343 336 367.343 342 182 342ZM364.343 330 382.343 339 364.343 348Z"/><path d="M556 338 709.229 338 709.229 344 556 344ZM706.229 332 724.229 341 706.229 350Z"/><path d="M3-1.53276e-06 3.0001 190.486-2.9999 190.486-3 1.53276e-06ZM9.0001 187.486 0.000104987 205.486-8.9999 187.486Z" transform="matrix(1 0 0 -1 469 570.486)"/><path d="M3-3.06552e-06 3.00019 190.486-2.99981 190.486-3 3.06552e-06ZM9.00019 187.486 0.000209974 205.486-8.99981 187.486Z" transform="matrix(1 0 0 -1 811 570.486)"/><path d="M898 336 1021.51 336 1021.51 342 898 342ZM1018.51 330 1036.51 339 1018.51 348Z"/><path d="M214 174 472.086 174 472.086 298.457 466.086 298.457 466.086 177 469.086 180 214 180ZM478.086 295.457 469.086 313.457 460.086 295.457Z"/><text font-family="Yu Gothic,Yu Gothic_MSFontService,sans-serif" font-weight="700" font-size="24" transform="translate(261.714 165)">Distance data</text><text font-family="Yu Gothic,Yu Gothic_MSFontService,sans-serif" font-weight="700" font-size="24" transform="translate(837.257 546)">nav_vel</text><text font-family="Yu Gothic,Yu Gothic_MSFontService,sans-serif" font-weight="700" font-size="24" transform="translate(479.085 546)">True or False by waypoint</text><text font-family="Yu Gothic,Yu Gothic_MSFontService,sans-serif" font-weight="700" font-size="24" transform="translate(592.571 323)">yolo_vel</text><text font-family="Yu Gothic,Yu Gothic_MSFontService,sans-serif" font-weight="700" font-size="24" transform="translate(917.714 323)">cmd_vel</text><text font-family="Yu Gothic,Yu Gothic_MSFontService,sans-serif" font-weight="700" font-size="24" transform="translate(186.674 323)">Detection result</text></g></svg>